<?xml version="1.0" encoding="utf-8"?>
<!-- Generator: Adobe Illustrator 23.0.1, SVG Export Plug-In . SVG Version: 6.00 Build 0)  -->
<svg version="1.1"
	 id="svg1102" inkscape:version="1.0.2-2 (e86c870879, 2021-01-15)" sodipodi:docname="github.svg" xmlns:cc="http://creativecommons.org/ns#" xmlns:dc="http://purl.org/dc/elements/1.1/" xmlns:inkscape="http://www.inkscape.org/namespaces/inkscape" xmlns:rdf="http://www.w3.org/1999/02/22-rdf-syntax-ns#" xmlns:sodipodi="http://sodipodi.sourceforge.net/DTD/sodipodi-0.dtd" xmlns:svg="http://www.w3.org/2000/svg"
	 xmlns="http://www.w3.org/2000/svg" xmlns:xlink="http://www.w3.org/1999/xlink" x="0px" y="0px" viewBox="0 0 42.5 42.5"
	 style="enable-background:new 0 0 42.5 42.5;" xml:space="preserve">
<style type="text/css">
	.st0{fill:#181717;}
	.st1{fill:#FFFFFF;}
	.st2{font-family:'SegoeUI';}
	.st3{font-size:6.7735px;}
</style>
<sodipodi:namedview  bordercolor="#666666" borderopacity="1.0" id="base" inkscape:current-layer="layer1" inkscape:cx="55.286025" inkscape:cy="23.533474" inkscape:document-rotation="0" inkscape:document-units="mm" inkscape:pageopacity="0.0" inkscape:pageshadow="2" inkscape:window-height="1017" inkscape:window-maximized="1" inkscape:window-width="1920" inkscape:window-x="-8" inkscape:window-y="-8" inkscape:zoom="8.503251" pagecolor="#ffffff" showgrid="false">
	</sodipodi:namedview>
<g id="layer1" transform="translate(-149.8889,-50.261364)" inkscape:groupmode="layer" inkscape:label="Capa 1">
	<rect id="rect1414-3-2-3-6" x="149.9" y="50.3" class="st0" width="15mm" height="15mm"/>
	<text transform="matrix(1 0 0 1 160.5481 86.5289)" class="st1 st2 st3">GitHub</text>
	<path id="path1573" class="st1" d="M171.1,59.3c-5,0-9,4-9,9c0,4,2.6,7.3,6.2,8.5c0.5,0.1,0.6-0.2,0.6-0.4c0-0.2,0-0.8,0-1.5
		c-2.5,0.5-3-1.2-3-1.2c-0.4-1-1-1.3-1-1.3c-0.8-0.6,0.1-0.5,0.1-0.5c0.9,0.1,1.4,0.9,1.4,0.9c0.8,1.4,2.1,1,2.6,0.7
		c0.1-0.6,0.3-1,0.6-1.2c-2-0.2-4.1-1-4.1-4.4c0-1,0.3-1.8,0.9-2.4c-0.1-0.2-0.4-1.1,0.1-2.4c0,0,0.8-0.2,2.5,0.9
		c0.7-0.2,1.5-0.3,2.2-0.3c0.8,0,1.5,0.1,2.2,0.3c1.7-1.2,2.5-0.9,2.5-0.9c0.5,1.2,0.2,2.2,0.1,2.4c0.6,0.6,0.9,1.4,0.9,2.4
		c0,3.5-2.1,4.2-4.1,4.4c0.3,0.3,0.6,0.8,0.6,1.7c0,1.2,0,2.2,0,2.5c0,0.2,0.2,0.5,0.6,0.4c3.6-1.2,6.2-4.6,6.2-8.5
		C180.1,63.3,176.1,59.3,171.1,59.3"/>
</g>
</svg>
