<?xml version="1.0" encoding="utf-8"?>
<!-- Generator: Adobe Illustrator 23.0.1, SVG Export Plug-In . SVG Version: 6.00 Build 0)  -->
<svg version="1.1"
	 id="svg1102" inkscape:version="1.0.2-2 (e86c870879, 2021-01-15)" sodipodi:docname="vscode.svg" xmlns:cc="http://creativecommons.org/ns#" xmlns:dc="http://purl.org/dc/elements/1.1/" xmlns:inkscape="http://www.inkscape.org/namespaces/inkscape" xmlns:rdf="http://www.w3.org/1999/02/22-rdf-syntax-ns#" xmlns:sodipodi="http://sodipodi.sourceforge.net/DTD/sodipodi-0.dtd" xmlns:svg="http://www.w3.org/2000/svg"
	 xmlns="http://www.w3.org/2000/svg" xmlns:xlink="http://www.w3.org/1999/xlink" x="0px" y="0px" viewBox="0 0 42.5 42.5"
	 style="enable-background:new 0 0 42.5 42.5;" xml:space="preserve">
<style type="text/css">
	.st0{display:none;}
	.st1{display:inline;fill:#FFFFFF;}
	.st2{display:inline;fill:#181717;}
	.st3{font-family:'SegoeUI';}
	.st4{font-size:6.7735px;}
	.st5{display:inline;fill:#007ACC;}
</style>
<sodipodi:namedview  bordercolor="#666666" borderopacity="1.0" id="base" inkscape:current-layer="layer1" inkscape:cx="80.457228" inkscape:cy="59.876868" inkscape:document-rotation="0" inkscape:document-units="mm" inkscape:pageopacity="0.0" inkscape:pageshadow="2" inkscape:window-height="1017" inkscape:window-maximized="1" inkscape:window-width="1920" inkscape:window-x="-8" inkscape:window-y="-8" inkscape:zoom="8.503251" pagecolor="#ffffff" showgrid="false">
	</sodipodi:namedview>
<g id="layer1" transform="translate(-143.22902,-40.645508)" inkscape:groupmode="layer" inkscape:label="Capa 1" class="st0">
	<path id="path1204" class="st1" d="M217.2,79.6c-0.1,0-0.2,0-0.3,0v0h0c0.1,0.1,0.2,0.2,0.2,0.3c0.1,0.1,0.1,0.2,0.2,0.3l0,0
		c0.1-0.1,0.1-0.2,0.1-0.3c0,0,0-0.1-0.1-0.1C217.3,79.7,217.2,79.6,217.2,79.6L217.2,79.6z M206.2,93.2h-1c0-1.5-0.1-3-0.3-4.6h0
		l-1.5,4.6h-0.7l-1.4-4.6h0c-0.1,1.5-0.2,3-0.2,4.6h-0.9c0.1-2,0.2-3.9,0.4-5.7h1.2l1.4,4.2h0l1.4-4.2h1.1
		C206,89.6,206.1,91.5,206.2,93.2L206.2,93.2z M210.3,89c-0.4,2.1-0.9,3.7-1.5,4.6c-0.5,0.7-1,1.1-1.6,1.1c-0.2,0-0.4,0-0.6-0.1
		v-0.5c0.1,0,0.2,0,0.4,0c0.3,0,0.5-0.1,0.7-0.2c0.2-0.2,0.3-0.4,0.3-0.6c0-0.2-0.1-0.5-0.2-1l-1-3.3h0.9l0.8,2.4
		c0.2,0.6,0.2,0.9,0.2,1.2c0.4-1.1,0.7-2.3,0.9-3.6L210.3,89z M223.1,93.2h-2.7v-5.7h0.9v5h1.8L223.1,93.2z M219.6,93.4l-1.1-0.5
		c0.1-0.1,0.2-0.2,0.3-0.3c0.4-0.5,0.7-1.3,0.7-2.3c0-1.9-0.7-2.8-2.2-2.8c-0.7,0-1.3,0.2-1.7,0.7c-0.4,0.5-0.7,1.3-0.7,2.3
		c0,1,0.2,1.7,0.6,2.2c0.4,0.4,0.9,0.6,1.6,0.6c0.3,0,0.5,0,0.8-0.1l1.4,0.8L219.6,93.4L219.6,93.4z M216.2,92.1
		c-0.2-0.4-0.3-1-0.3-1.8c0-1.4,0.4-2.2,1.3-2.2c0.5,0,0.8,0.2,1,0.5c0.2,0.4,0.3,1,0.3,1.8c0,1.5-0.4,2.2-1.3,2.2
		C216.8,92.6,216.4,92.4,216.2,92.1L216.2,92.1z M214.5,91.7c0,0.5-0.2,0.9-0.5,1.2c-0.4,0.3-0.8,0.5-1.4,0.5
		c-0.6,0-1.1-0.2-1.6-0.5l0.2-0.5c0.5,0.2,0.9,0.3,1.2,0.3c0.3,0,0.6-0.1,0.8-0.2c0.2-0.2,0.3-0.4,0.3-0.6c0-0.3-0.2-0.6-0.7-0.9
		c-0.4-0.2-1.2-0.7-1.2-0.7c-0.4-0.3-0.7-0.7-0.7-1.2c0-0.5,0.2-0.8,0.5-1.1c0.3-0.3,0.7-0.4,1.3-0.4c0.5,0,1,0.1,1.4,0.4l-0.2,0.5
		c-0.3-0.2-0.7-0.2-1.1-0.2c-0.3,0-0.5,0.1-0.7,0.2c-0.2,0.1-0.3,0.3-0.3,0.5c0,0.3,0.2,0.6,0.7,0.9c0.4,0.2,1.2,0.7,1.2,0.7
		C214.3,90.8,214.5,91.1,214.5,91.7L214.5,91.7z M224.2,85.6c-0.6,0-1,0-1.3,0.2c-0.1,0-0.3,0-0.3,0.2c0.1,0.1,0.1,0.1,0.1,0.2
		c0.1,0.1,0.2,0.3,0.4,0.4c0.1,0.1,0.3,0.2,0.4,0.3c0.3,0.2,0.6,0.3,0.8,0.4c0.1,0.1,0.3,0.2,0.5,0.3c0.1,0.1,0.1,0.1,0.2,0.2v0
		c0-0.1-0.1-0.2-0.1-0.2c-0.1-0.1-0.1-0.1-0.2-0.2c-0.2-0.3-0.4-0.5-0.7-0.7c-0.2-0.2-0.7-0.4-0.8-0.6l0,0c0.2,0,0.3-0.1,0.5-0.1
		c0.2-0.1,0.5,0,0.7-0.1c0.1,0,0.2-0.1,0.3-0.1v-0.1c-0.1-0.1-0.2-0.3-0.3-0.4c-0.4-0.3-0.7-0.6-1.1-0.9c-0.2-0.1-0.5-0.2-0.7-0.3
		c-0.1,0-0.2-0.1-0.3-0.1c-0.1-0.2-0.2-0.4-0.3-0.5c-0.2-0.4-0.4-0.8-0.6-1.2c-0.1-0.3-0.2-0.5-0.4-0.8c-0.7-1.2-1.5-1.9-2.7-2.6
		c-0.3-0.1-0.6-0.2-0.9-0.3c-0.2,0-0.3,0-0.5,0c-0.1,0-0.2-0.2-0.3-0.2c-0.4-0.2-1.4-0.8-1.7-0.1c-0.2,0.4,0.3,0.9,0.4,1.1
		c0.1,0.2,0.3,0.3,0.4,0.5c0,0.1,0.1,0.2,0.1,0.4c0.1,0.3,0.2,0.6,0.4,0.9c0.1,0.1,0.2,0.3,0.3,0.4c0.1,0.1,0.2,0.1,0.2,0.2
		c-0.1,0.1-0.1,0.3-0.2,0.5c-0.2,0.8-0.2,1.8,0.2,2.3c0.1,0.2,0.4,0.6,0.7,0.4c0.3-0.1,0.2-0.5,0.3-0.9c0-0.1,0-0.1,0-0.2v0
		c0.1,0.2,0.2,0.4,0.3,0.6c0.2,0.3,0.6,0.7,0.9,0.9c0.2,0.1,0.3,0.3,0.5,0.4v0h0c0-0.1-0.1-0.1-0.2-0.1c-0.1-0.1-0.3-0.3-0.4-0.4
		c-0.3-0.4-0.6-0.8-0.8-1.3c-0.1-0.2-0.2-0.5-0.3-0.7c0-0.1,0-0.2-0.1-0.2c-0.1,0.2-0.3,0.3-0.3,0.5c-0.1,0.3-0.1,0.7-0.2,1
		c0,0,0,0,0,0c-0.2-0.1-0.3-0.3-0.4-0.5c-0.2-0.5-0.2-1.3-0.1-1.8c0-0.1,0.3-0.6,0.2-0.7c0-0.1-0.2-0.2-0.3-0.3
		c-0.1-0.1-0.2-0.3-0.2-0.4c-0.2-0.4-0.2-0.8-0.4-1.2c-0.1-0.2-0.2-0.4-0.3-0.5c-0.1-0.2-0.3-0.3-0.4-0.5c0-0.1-0.1-0.2,0-0.3
		c0-0.1,0-0.1,0.1-0.1c0.1-0.1,0.3,0,0.4,0.1c0.3,0.1,0.5,0.2,0.7,0.3c0.1,0.1,0.2,0.2,0.3,0.2h0.1c0.2,0,0.5,0,0.7,0.1
		c0.4,0.1,0.7,0.3,1,0.5c0.9,0.6,1.7,1.4,2.2,2.4c0.1,0.2,0.1,0.3,0.2,0.5c0.1,0.3,0.3,0.7,0.5,1c0.1,0.3,0.3,0.7,0.5,0.9
		c0.1,0.1,0.5,0.2,0.7,0.3c0.1,0.1,0.4,0.1,0.5,0.2c0.2,0.1,0.5,0.3,0.7,0.5C223.9,85.3,224.2,85.5,224.2,85.6L224.2,85.6z"/>
	<rect id="rect1414-3-2-3-6-7" x="143.2" y="40.6" class="st2" width="42.5" height="42.5"/>
	<text transform="matrix(1 0 0 1 153.8882 76.9131)" class="st1 st3 st4">GitHub</text>
	<path id="path1573-1" class="st1" d="M164.5,49.7c-5,0-9,4-9,9c0,4,2.6,7.4,6.2,8.5c0.4,0.1,0.6-0.2,0.6-0.4c0-0.2,0-0.8,0-1.5
		c-2.5,0.5-3-1.2-3-1.2c-0.4-1-1-1.3-1-1.3c-0.8-0.6,0.1-0.5,0.1-0.5c0.9,0.1,1.4,0.9,1.4,0.9c0.8,1.4,2.1,1,2.6,0.7
		c0.1-0.6,0.3-1,0.6-1.2c-2-0.2-4.1-1-4.1-4.4c0-1,0.3-1.8,0.9-2.4c-0.1-0.2-0.4-1.1,0.1-2.4c0,0,0.8-0.2,2.5,0.9
		c0.7-0.2,1.5-0.3,2.3-0.3c0.8,0,1.5,0.1,2.2,0.3c1.7-1.2,2.5-0.9,2.5-0.9c0.5,1.2,0.2,2.2,0.1,2.4c0.6,0.6,0.9,1.4,0.9,2.4
		c0,3.5-2.1,4.2-4.1,4.4c0.3,0.3,0.6,0.8,0.6,1.7c0,1.2,0,2.2,0,2.5c0,0.2,0.2,0.5,0.6,0.4c3.6-1.2,6.2-4.6,6.2-8.5
		C173.5,53.7,169.5,49.7,164.5,49.7"/>
	<rect id="rect1616-4" x="143.2" y="40.6" class="st5" width="42.5" height="42.5"/>
	<text transform="matrix(1 0 0 1 151.9165 76.9131)" class="st1 st3 st4">VS Code</text>
	<path id="path1692" class="st1" d="M172.9,51.7l-3.7-1.8c-0.4-0.2-0.9-0.1-1.3,0.2l-7.1,6.5l-3.1-2.3c-0.3-0.2-0.7-0.2-1,0l-1,0.9
		c-0.3,0.3-0.3,0.8-0.1,1.1c0,0,0,0,0,0l2.7,2.4l-2.7,2.4c-0.3,0.3-0.3,0.8,0,1.1c0,0,0,0,0,0l1,0.9c0.3,0.2,0.7,0.3,1,0l3.1-2.3
		l7.1,6.5c0.3,0.3,0.8,0.4,1.3,0.2l3.7-1.8c0.4-0.2,0.6-0.6,0.6-1V52.8C173.5,52.3,173.2,51.9,172.9,51.7L172.9,51.7z M169,62.9
		l-5.4-4.1l5.4-4.1V62.9z"/>
</g>
<image style="overflow:visible;" width="800" height="600" xlink:href="C:\Users\notic\Desktop\linux-22616.png"  transform="matrix(7.203678e-02 0 0 7.203678e-02 -7.9318 -0.3512)">
</image>
</svg>
